<svg width="324" height="127" viewBox="0 0 324 127" fill="none" xmlns="http://www.w3.org/2000/svg">
<g opacity="0.2" clip-path="url(#clip0)">
<path fill-rule="evenodd" clip-rule="evenodd" d="M211.42 21.9175H200.4V35.3751C200.398 36.3888 200.451 37.4026 200.563 38.4052C200.657 39.2385 200.912 40.0429 201.316 40.7759C201.745 41.4443 202.378 41.9612 203.122 42.2464C204.143 42.643 205.235 42.8302 206.333 42.7901C207.213 42.7723 208.091 42.7032 208.965 42.5851C209.859 42.5094 210.712 42.1774 211.423 41.627V51.9987C210.023 52.5028 208.568 52.8387 207.088 52.9991C205.613 53.1618 204.132 53.2442 202.648 53.2486C200.682 53.2665 198.717 53.0437 196.805 52.5869C195.124 52.1882 193.537 51.4695 192.13 50.4702C190.789 49.4902 189.715 48.1902 189.009 46.6892C188.204 44.9172 187.814 42.9856 187.869 41.0411V21.9175H179.854V11.9581H187.887V0H200.418V11.9581H211.438L211.423 21.9175H211.42ZM148.638 11.9581H136.626V52.3084H149.172V32.2134C149.172 30.9345 149.255 29.6578 149.423 28.3901C149.559 27.2426 149.905 26.1308 150.444 25.1104C150.98 24.1411 151.773 23.3368 152.736 22.7865C153.945 22.1616 155.297 21.8621 156.658 21.9175C157.976 21.8373 159.285 22.1886 160.385 22.9179C161.247 23.5841 161.909 24.4754 162.293 25.4914C162.718 26.5942 162.972 27.7551 163.048 28.9337C163.138 30.1881 163.182 31.3957 163.182 32.5521V52.3084H175.696V30.0789C175.71 27.552 175.517 25.0281 175.119 22.5325C174.796 20.3841 174.041 18.3229 172.9 16.4721C171.793 14.7329 170.22 13.3368 168.36 12.4415C165.942 11.371 163.31 10.8679 160.666 10.971C159.254 10.9568 157.848 11.1551 156.495 11.5592C155.296 11.9006 154.147 12.3949 153.076 13.0298C152.123 13.6013 151.253 14.2991 150.488 15.1041C149.826 15.7975 149.263 16.5797 148.817 17.428H148.638V11.9581ZM32.0787 51.2189C35.0499 49.9021 37.6544 47.8832 39.667 45.3368L30.9078 38.9378C29.8926 40.3318 28.6293 41.5281 27.1807 42.467C25.6165 43.4184 23.8066 43.893 21.9743 43.8351C19.7235 43.905 17.5246 43.1522 15.7915 41.7184C14.0868 40.2514 12.9377 38.2461 12.5359 36.0368H41.6646V32.1288C41.7033 29.1724 41.2533 26.2298 40.3328 23.4192C39.5165 20.9621 38.2252 18.6882 36.532 16.7261C34.8791 14.8631 32.8187 13.404 30.5101 12.4616C28.0083 11.4448 25.3258 10.9445 22.6246 10.9911C19.6021 10.9524 16.5968 11.4504 13.7492 12.4616C11.0888 13.3857 8.64299 14.8362 6.55864 16.7261C4.51936 18.6065 2.88816 20.8836 1.76568 23.417C0.564612 26.1624 -0.0356547 29.1316 0.00490677 32.1265C-0.0622582 35.1251 0.512886 38.1035 1.69194 40.8628C2.81054 43.399 4.44225 45.6776 6.48491 47.5559C8.56886 49.4474 11.0147 50.8995 13.6755 51.8249C16.5222 52.8365 19.5298 53.3333 22.5508 53.2954C25.84 53.2954 29.0889 52.5869 32.0787 51.2233V51.2189ZM28.5862 24.6491C28.9459 25.5782 29.1068 26.572 29.0599 27.5679H12.6096C12.6543 26.572 12.8934 25.5983 13.3202 24.6982C13.7224 23.7913 14.3078 22.9759 15.0363 22.3008C15.8362 21.5766 16.7568 20.9996 17.7579 20.5941C18.9104 20.1373 20.1421 19.9124 21.3822 19.9323C22.4194 19.8938 23.4531 20.0729 24.4165 20.4578C25.3799 20.8428 26.2516 21.4251 26.9751 22.1671C27.679 22.8756 28.2264 23.72 28.5862 24.6491ZM56.3697 11.9581H42.907L59.5941 52.3084H72.9094L88.944 11.9581H76.3259L66.7534 39.3633H66.5768L56.3697 11.9581ZM129.848 45.3345C127.839 47.8847 125.234 49.9051 122.26 51.2189C119.273 52.5847 116.021 53.291 112.732 53.2932C109.71 53.332 106.704 52.834 103.857 51.8227C101.198 50.8943 98.7529 49.4434 96.6664 47.5559C94.6237 45.6776 92.992 43.399 91.8734 40.8628C90.715 38.099 90.1605 35.1208 90.2467 32.1265C90.2062 29.1316 90.8064 26.1624 92.0075 23.417C93.1297 20.8829 94.7609 18.6049 96.8005 16.7239C98.8872 14.8372 101.332 13.3871 103.991 12.4594C106.839 11.4481 109.844 10.9502 112.866 10.9888C115.572 10.9425 118.259 11.4427 120.765 12.4594C123.068 13.4039 125.123 14.8628 126.772 16.7239C128.471 18.682 129.764 20.957 130.575 23.417C131.493 26.2288 131.944 29.1699 131.906 32.1265V36.039H102.715C103.117 38.2448 104.266 40.2501 105.971 41.7162C107.7 43.151 109.901 43.9041 112.154 43.8351C113.991 43.8945 115.805 43.4191 117.376 42.467C118.817 41.5236 120.075 40.3279 121.089 38.9378L129.848 45.3345ZM119.257 27.5657C119.298 26.5702 119.132 25.5771 118.771 24.6482C118.409 23.7194 117.86 22.8747 117.157 22.1671C116.434 21.4241 115.562 20.8411 114.599 20.4561C113.635 20.071 112.601 19.8926 111.564 19.9323C110.309 19.9065 109.061 20.1315 107.895 20.5941C106.894 20.9996 105.973 21.5744 105.173 22.3008C104.436 22.9759 103.844 23.7936 103.428 24.6982C103.015 25.602 102.775 26.5743 102.717 27.5657H119.257ZM243.315 52.3084H255.344V11.9581H242.813V32.053C242.819 33.3252 242.739 34.5997 242.576 35.863C242.429 37.0108 242.073 38.1222 241.526 39.1427C240.995 40.1166 240.201 40.922 239.233 41.4666C238.023 42.1044 236.665 42.409 235.298 42.3489C233.984 42.4308 232.679 42.0793 231.584 41.3485C230.722 40.6801 230.056 39.7889 229.661 38.7751C229.233 37.6737 228.984 36.5119 228.921 35.3327C228.834 34.0872 228.789 32.8819 228.789 31.7144V11.9581H216.258V34.1853C216.25 36.7109 216.433 39.2336 216.806 41.7318C217.109 43.8774 217.849 45.9406 218.98 47.7921C220.097 49.5389 221.686 50.9337 223.567 51.8227C226.001 52.8898 228.646 53.3925 231.303 53.2932C232.715 53.3074 234.122 53.1091 235.475 52.705C236.671 52.3575 237.819 51.8636 238.893 51.2345C239.835 50.6663 240.691 49.9679 241.436 49.1601C242.087 48.4449 242.661 47.6673 243.152 46.8363H243.315V52.3084ZM260.195 11.9581H272.207V17.4302H272.386C272.831 16.5835 273.394 15.8015 274.057 15.1063C274.822 14.3023 275.693 13.6053 276.645 13.0342C277.716 12.3991 278.865 11.9048 280.064 11.5637C281.417 11.1588 282.823 10.9597 284.236 10.9732C286.862 10.9259 289.459 11.5275 291.795 12.7245C294.033 13.9245 295.788 15.857 296.764 18.1966C297.94 15.8719 299.771 13.9393 302.031 12.6354C304.384 11.462 306.992 10.8908 309.622 10.9732C311.994 10.8989 314.352 11.3669 316.515 12.3413C318.297 13.1773 319.827 14.4659 320.953 16.0778C322.081 17.7666 322.874 19.6538 323.29 21.639C323.775 23.8894 324.014 26.1887 324 28.4926V52.3218H311.469V28.7867C311.514 27.0863 311.1 25.4051 310.272 23.9183C309.809 23.2196 309.163 22.6608 308.404 22.3029C307.644 21.945 306.801 21.8017 305.966 21.8886C304.716 21.8485 303.472 22.0899 302.328 22.5949C301.39 23.0316 300.583 23.7067 299.991 24.5511C299.38 25.4368 298.956 26.4376 298.746 27.4922C298.49 28.6369 298.361 29.8062 298.362 30.9791V52.3084H285.818V28.3165C285.764 27.3128 285.565 26.3221 285.225 25.3755C284.906 24.4424 284.345 23.61 283.599 22.9625C282.66 22.2367 281.486 21.8799 280.301 21.9599C278.94 21.9047 277.588 22.2042 276.379 22.8288C275.413 23.3763 274.62 24.181 274.087 25.1527C273.537 26.173 273.181 27.2856 273.036 28.4346C272.869 29.7024 272.784 30.9791 272.784 32.258V52.3084H260.268L260.195 11.9581ZM13.9548 66.753H2.43379V126.033H14.9491V102.792H15.1726C16.5622 104.688 18.4961 106.119 20.7186 106.896C23.054 107.698 25.5109 108.091 27.9806 108.057C30.6776 108.102 33.3434 107.489 35.7499 106.277C37.9979 105.107 39.9736 103.479 41.5484 101.498C43.2159 99.4437 44.5078 97.1132 45.3649 94.6128C46.2296 92.0015 46.6631 89.2699 46.652 86.5227C46.6654 83.6622 46.1644 80.8225 45.1727 78.1384C44.2878 75.6836 42.9084 73.4354 41.1194 71.5322C39.3529 69.6622 37.2039 68.1927 34.8181 67.2231C32.2179 66.1879 29.4346 65.6877 26.6355 65.7526C25.2213 65.7434 23.8142 65.9516 22.4637 66.3698C21.2347 66.7307 20.0504 67.2253 18.9287 67.8403C17.9031 68.4062 16.949 69.0925 16.0887 69.8857C15.3513 70.5407 14.6922 71.276 14.1224 72.0781H13.9593V66.753H13.9548ZM16.5736 94.2897C14.7808 92.2675 13.843 89.6316 13.957 86.9349C13.8463 84.2386 14.7836 81.6039 16.5736 79.58C17.5341 78.6117 18.6906 77.8589 19.966 77.3717C21.2414 76.8846 22.6063 76.6742 23.9697 76.7548C25.3334 76.6745 26.6986 76.8849 27.9744 77.3721C29.2501 77.8592 30.407 78.6119 31.3681 79.58C33.1583 81.603 34.0965 84.2369 33.9869 86.9326C34.1009 89.6304 33.1623 92.2673 31.3681 94.2897C30.4081 95.2585 29.2516 96.0115 27.9761 96.4984C26.7005 96.9853 25.3353 97.1947 23.972 97.1127C22.6089 97.1919 21.2445 96.9812 19.9693 96.4945C18.6942 96.0078 17.5374 95.2563 16.5758 94.2897H16.5736ZM51.7823 66.7508H64.2977V73.2255H64.4764C65.588 71.0182 67.2167 69.1106 69.2247 67.6643C71.294 66.3547 73.7137 65.7036 76.1628 65.7971C76.8934 65.7971 77.6174 65.8261 78.3369 65.8863C79.0117 65.9286 79.6798 66.0311 80.3345 66.1937V77.5792C79.4729 77.3077 78.5934 77.0963 77.7023 76.9464C76.8062 76.809 75.9008 76.7404 74.9941 76.7414C73.0503 76.6582 71.1117 76.9997 69.3141 77.7418C67.9935 78.3345 66.8785 79.3015 66.1031 80.5202C65.3042 81.8229 64.7994 83.2835 64.6239 84.8004C64.3902 86.615 64.2767 88.443 64.2843 90.2725V107.101H51.7823V66.753V66.7508ZM112.985 106.014C115.961 104.697 118.57 102.677 120.589 100.129L111.816 93.7305C110.81 95.1275 109.55 96.3246 108.102 97.2597C106.532 98.212 104.717 98.6873 102.88 98.6278C100.634 98.6978 98.4404 97.9447 96.7133 96.5111C95.0013 95.0486 93.8462 93.0432 93.442 90.8317H122.602V86.9326C122.642 83.9715 122.189 81.0238 121.255 78.212C120.449 75.7529 119.162 73.4778 117.467 71.5188C115.814 69.6551 113.754 68.1952 111.445 67.2521C108.943 66.2369 106.261 65.7367 103.56 65.7815C100.537 65.7448 97.5324 66.2427 94.6844 67.2521C92.0223 68.1685 89.5723 69.6097 87.4804 71.4899C85.4318 73.3664 83.7946 75.6451 82.6718 78.183C81.5202 80.945 80.9273 83.9068 80.9273 86.8981C80.9273 89.8893 81.5202 92.8511 82.6718 95.6132C83.7677 98.1637 85.3849 100.458 87.4201 102.351C89.5011 104.237 91.941 105.688 94.595 106.615C97.444 107.625 100.449 108.124 103.473 108.086C106.757 108.086 110.002 107.38 112.985 106.014ZM109.508 79.4574C109.865 80.3865 110.029 81.3803 109.982 82.3762H93.442C93.489 81.358 93.7325 80.3598 94.1526 79.4329C94.5832 78.552 95.1812 77.7628 95.9134 77.1091C96.7097 76.3886 97.6252 75.8111 98.6193 75.4024C99.7916 74.9412 101.044 74.7163 102.304 74.7406C103.341 74.7026 104.374 74.8818 105.337 75.2668C106.3 75.6517 107.171 76.2338 107.895 76.9754C108.601 77.6839 109.148 78.5283 109.508 79.4574ZM127.898 66.753H139.924V72.2251H140.087C140.534 71.3785 141.095 70.5942 141.758 69.9012C142.526 69.0996 143.396 68.4022 144.346 67.8269C145.418 67.1941 146.567 66.7017 147.765 66.3564C149.117 65.9516 150.524 65.7525 151.936 65.766C154.563 65.7173 157.16 66.319 159.496 67.5172C161.734 68.7169 163.489 70.6496 164.465 72.9893C165.641 70.6651 167.471 68.7332 169.732 67.4303C172.084 66.2561 174.693 65.6842 177.322 65.766C179.695 65.6916 182.053 66.1596 184.216 67.134C185.998 67.9701 187.528 69.2586 188.653 70.8705C189.786 72.5772 190.575 74.4866 190.977 76.4897C191.462 78.7422 191.699 81.0416 191.686 83.3454V107.175H179.172V83.6418C179.214 81.9437 178.794 80.266 177.957 78.7868C177.498 78.0843 176.853 77.5219 176.093 77.1614C175.334 76.8009 174.49 76.6563 173.653 76.7437C172.402 76.7035 171.158 76.945 170.013 77.45C169.075 77.9 168.27 78.584 167.676 79.4329C167.073 80.3242 166.648 81.3246 166.434 82.3762C166.176 83.5259 166.047 84.7006 166.049 85.8787V107.206H153.532V85.774C153.532 85.0544 153.532 84.1564 153.442 83.1115C153.386 82.1094 153.192 81.1198 152.866 80.1704C152.534 79.2393 151.969 78.4085 151.224 77.7574C150.286 77.0297 149.111 76.6734 147.925 76.757C146.563 76.6981 145.209 77.0026 144.004 77.6393C143.034 78.1852 142.239 78.9895 141.711 79.9654C141.164 80.986 140.808 82.0974 140.661 83.2452C140.492 84.5081 140.408 85.781 140.409 87.0552V107.103H127.896V66.753H127.898ZM198.831 78.212C197.629 80.9616 197.029 83.9354 197.071 86.9349C197.035 89.9193 197.635 92.8774 198.831 95.6132C199.946 98.1599 201.578 100.449 203.624 102.335C205.713 104.22 208.158 105.67 210.815 106.602C216.513 108.603 222.734 108.603 228.434 106.602C231.088 105.673 233.528 104.222 235.609 102.335C237.66 100.461 239.297 98.1819 240.415 95.6421C241.568 92.8803 242.161 89.9185 242.161 86.927C242.161 83.9356 241.568 80.9738 240.415 78.212C239.293 75.6743 237.657 73.3955 235.609 71.5188C233.528 69.6319 231.088 68.1809 228.434 67.2521C222.732 65.2514 216.517 65.2514 210.815 67.2521C208.158 68.1838 205.713 69.6343 203.624 71.5188C201.585 73.3999 199.954 75.6778 198.831 78.212ZM212.234 94.2897C210.43 92.273 209.486 89.6346 209.602 86.9349C209.489 84.2356 210.433 81.5982 212.234 79.58C214.264 77.757 216.899 76.7482 219.631 76.7482C222.363 76.7482 224.998 77.757 227.028 79.58C228.829 81.5977 229.773 84.2341 229.661 86.9326C229.777 89.6332 228.833 92.2727 227.028 94.2897C224.998 96.1116 222.363 97.1197 219.632 97.1197C216.901 97.1197 214.266 96.1116 212.236 94.2897H212.234Z" fill="white"/>
</g>
<defs>
<clipPath id="clip0">
<rect width="324" height="127" fill="white"/>
</clipPath>
</defs>
</svg>
